<svg xmlns="http://www.w3.org/2000/svg" viewBox="0 0 104 104"><defs><style>.cv-icon-cls-1{fill:#fff;}</style></defs><title>cv-icon</title><g id="Layer_2" data-name="Layer 2"><g id="Layer_1-2" data-name="Layer 1"><path class="cv-icon-cls-1" d="M43.63,47.86a1.74,1.74,0,1,0-1.73,1.73A1.73,1.73,0,0,0,43.63,47.86Z"/><path class="cv-icon-cls-1" d="M62.23,49.59a1.73,1.73,0,1,0-1.73-1.73A1.73,1.73,0,0,0,62.23,49.59Z"/><path class="cv-icon-cls-1" d="M44.3,63.69a12.44,12.44,0,0,0,15.4,0,1,1,0,1,0-1.29-1.63,10.36,10.36,0,0,1-12.82,0,1,1,0,0,0-1.29,1.63Z"/><path class="cv-icon-cls-1" d="M95.68,0H8.32A8.31,8.31,0,0,0,0,8.32V95.68A8.31,8.31,0,0,0,8.32,104H95.68A8.31,8.31,0,0,0,104,95.68V8.32A8.31,8.31,0,0,0,95.68,0ZM40.5,28.49c-.43-1.53-.08-5.26,4.39-8.4a9.79,9.79,0,0,1,10.06-1l9.53,4.49a14.72,14.72,0,0,0,8.4,1.26l.15,0-.13.12a14.58,14.58,0,0,1-13,3.58l-1.33-.29a14.18,14.18,0,0,0-14,4.88l-2.2,2.67-1.91-7.25h0ZM76.83,50.26a4.83,4.83,0,0,1-3.29,4.57L73,51.91V45.54A4.85,4.85,0,0,1,76.83,50.26ZM33,45,42.24,39H70.18A18.63,18.63,0,0,1,71,44.39v7.08l-7.88,5.71A13.11,13.11,0,0,0,56,55.09h-7.9a13.11,13.11,0,0,0-7.13,2.09L33,51.47Zm37.18-8H44.14l2.08-2.54a12.13,12.13,0,0,1,11.94-4.17l1.33.29a16.67,16.67,0,0,0,14.3-3.62ZM38.55,29.56l.09,0,2,7.37.15.56-7.85,5-.66-8A4.85,4.85,0,0,1,37,29.32,5,5,0,0,1,38.55,29.56ZM31,51.91l-.5,2.92a4.83,4.83,0,0,1,.5-9.29Zm.08,12,1.7-10L40.3,59.3a1,1,0,0,0,1.22,0,11,11,0,0,1,6.53-2.12H56a11,11,0,0,1,6.53,2.12,1,1,0,0,0,1.22,0l7.56-5.48,1.7,10a10.92,10.92,0,0,1-2.51,9l-1.13,1.31a19.59,19.59,0,0,1-7.18,5.23,26.13,26.13,0,0,1-20.28,0,19.59,19.59,0,0,1-7.18-5.23l-1.13-1.31A10.92,10.92,0,0,1,31,63.86Zm1.51,11,.56.64a21.66,21.66,0,0,0,7.94,5.78,28.23,28.23,0,0,0,21.9,0,21.66,21.66,0,0,0,7.94-5.78l.56-.64a14,14,0,0,1,13.3,14v11H19.25v-11A14,14,0,0,1,32.55,74.9ZM99.84,95.68a4.17,4.17,0,0,1-4.16,4.16H86.83v-11A16.07,16.07,0,0,0,73,73a13,13,0,0,0,2-9.44L73.89,56.9A6.9,6.9,0,0,0,73,43.43,21,21,0,0,0,72,38l5.12-14.37A1,1,0,0,0,76,22.27l-3.45.5a12.73,12.73,0,0,1-7.22-1.08L55.84,17.2a11.84,11.84,0,0,0-12.17,1.21c-4.22,3-5.35,6.56-5.37,9a6.92,6.92,0,0,0-8.14,7.38l.72,8.71a6.9,6.9,0,0,0-.77,13.45L29,63.52A13,13,0,0,0,31,73a16.07,16.07,0,0,0-13.84,15.9v11H8.32a4.17,4.17,0,0,1-4.16-4.16V8.32A4.17,4.17,0,0,1,8.32,4.16H95.68a4.17,4.17,0,0,1,4.16,4.16Z"/></g></g></svg>