<svg xmlns="http://www.w3.org/2000/svg" viewBox="0 0 512 480"><title>cart-icon</title><g id="Layer_2" data-name="Layer 2"><g id="Layer_1-2" data-name="Layer 1"><path d="M510.62,54.4,464,240a15.95,15.95,0,0,1-16,16H144l12.8,64H432a16,16,0,0,1,0,32H144a16,16,0,0,1-16-16L67.2,32H16A16,16,0,0,1,16,0H80A16,16,0,0,1,96,16l3.2,16H496a16,16,0,0,1,16,16,15.73,15.73,0,0,1-1.38,6.4ZM137.6,224H192V64H105.6ZM288,64H208V224h80Zm96,0H304V224h80Zm16,0V224h36.05L476.58,64ZM176,384a48,48,0,1,1-48,48A48,48,0,0,1,176,384Zm0,64a16,16,0,1,0-16-16A16,16,0,0,0,176,448Zm224-64a48,48,0,1,1-48,48A48,48,0,0,1,400,384Zm0,64a16,16,0,1,0-16-16A16,16,0,0,0,400,448Z"/></g></g></svg>