<svg xmlns="http://www.w3.org/2000/svg" xmlns:xlink="http://www.w3.org/1999/xlink" viewBox="0 0 222.05 135.86"><defs><style>.logo-solid-gradient-cls-1{fill:url(#logo-solid-gradient-linear-gradient);}</style><linearGradient id="logo-solid-gradient-linear-gradient" x1="-0.67" y1="143.5" x2="266.89" y2="-55.22" gradientUnits="userSpaceOnUse"><stop offset="0" stop-color="#ff5652"/><stop offset="1" stop-color="#f4ce56"/></linearGradient></defs><title>logo-solid-gradient_1</title><g id="Layer_2" data-name="Layer 2"><g id="final"><path class="logo-solid-gradient-cls-1" d="M222.05,24.47V87a48.89,48.89,0,0,1-48.9,48.89H96.36a25.46,25.46,0,0,1-3.61-.26,24.33,24.33,0,0,1-5.06-1.33q-.66-.25-1.29-.54t-1-.48c-.58-.29-1.15-.6-1.7-.94a24.14,24.14,0,0,1-4.61-3.61h0l-6.42-6.42-37-37a24.44,24.44,0,0,1,0-34.57l7.7-7.7L80.64,5.62a19.2,19.2,0,0,1,27.14,0h0a19.18,19.18,0,0,1,0,27.14L78.37,62.17a8.16,8.16,0,0,0,0,11.53l23.54,23.54a8.15,8.15,0,0,0,5.77,2.39h55.93a24.45,24.45,0,0,0,24.44-24.45V44.39a8.14,8.14,0,0,0-8.15-8.14H141.32A18.13,18.13,0,0,1,123.2,18.12h0A18.12,18.12,0,0,1,141.32,0H197.6c.34,0,.67,0,1,.05A24.45,24.45,0,0,1,222.05,24.47ZM19.19,0h0A19.19,19.19,0,0,0,0,19.19v6.92A19.19,19.19,0,0,0,19.19,45.3h0a19.2,19.2,0,0,0,19.2-19.19V19.19A19.2,19.2,0,0,0,19.19,0Zm0,135.86h0a19.2,19.2,0,0,0,19.2-19.2v-6.91a19.2,19.2,0,0,0-19.2-19.19h0A19.19,19.19,0,0,0,0,109.75v6.91A19.2,19.2,0,0,0,19.19,135.86Z"/></g></g></svg>