<svg class="logo-solid" xmlns="http://www.w3.org/2000/svg" viewBox="0 0 277.88 170.02"><defs><style>.cls-1{isolation:isolate;}.cls-2{fill:#fff;mix-blend-mode:multiply;}</style></defs><title>logo-solid</title><g class="cls-1"><g id="Layer_2" data-name="Layer 2"><g id="Layer_1-2" data-name="Layer 1"><rect class="cls-2" width="48.04" height="56.69" rx="24.02" ry="24.02"/><rect class="cls-2" y="113.33" width="48.04" height="56.69" rx="24.02" ry="24.02"/><path class="cls-2" d="M248.53.07A10.19,10.19,0,0,0,247.29,0H176.85a22.39,22.39,0,0,0-2.32.12,21,21,0,0,0-2.25.34,22.62,22.62,0,0,0-9,4.05c-.29.21-.57.44-.85.67A22.82,22.82,0,0,0,158.05,10c-.21.3-.4.61-.59.92a22.54,22.54,0,0,0-3.29,11.76h0a22.54,22.54,0,0,0,3.29,11.76c.19.31.38.62.59.92a22.82,22.82,0,0,0,4.38,4.82c.28.23.56.46.85.67A22.28,22.28,0,0,0,166,42.62a22.75,22.75,0,0,0,6.24,2.28c.74.15,1.49.26,2.25.34a22.39,22.39,0,0,0,2.32.12h48.29a10.2,10.2,0,0,1,10.2,10.2V94.08a30.6,30.6,0,0,1-30.6,30.6h-70a10.2,10.2,0,0,1-7.21-3L98.08,92.23a10.2,10.2,0,0,1,0-14.42L134.88,41a24,24,0,0,0,0-34h0a24,24,0,0,0-34,0L54.2,53.75l-9.64,9.63a30.61,30.61,0,0,0,0,43.27L90.92,153h0l4,4,4,4h0l1,1,.21.18.29.25.59.51.47.38.24.18.41.32.56.41.59.41.63.42.54.34.7.42.49.28.78.42.41.2.88.43.27.12c.55.25,1.11.48,1.67.69h0q.75.28,1.53.54h0c.49.16,1,.3,1.47.43l.13,0c.46.12.91.22,1.37.32l.24,0a30.38,30.38,0,0,0,3.57.51l.51,0c.67.05,1.34.08,2,.08h96.1a61.19,61.19,0,0,0,61.19-61.19V30.63A30.58,30.58,0,0,0,248.53.07Z"/></g></g></g></svg>